# xmcd CD database file
#
# Track frame offsets:
#	150
#	39337
#	50725
#	64500
#	78025
#	92637
#	107000
#	128450
#	150412
#	162475
#
# Disc length: 2369 seconds
#
# Revision: 0
# Processed by: cddbd v1.4PL0 Copyright (c) Steve Scherf et al.
# Submitted via: CDex 1.51
#
DISCID=6c093f0a
DTITLE=Various Artist - Modern Jazz (Jazz Special Selection-27)
DYEAR=2001
DGENRE=Jazz
TTITLE0=Mack The Knife
TTITLE1=Parisian Thoroughfare
TTITLE2=Now's The Time
TTITLE3=Confirmation
TTITLE4=Fly Me To The Moon
TTITLE5=You Stepped Out Of A Dream
TTITLE6=But Beautiful
TTITLE7=Israel
TTITLE8=Caravan
TTITLE9=My Funny Valentine
EXTD=YEAR: 2001
EXTT0=
EXTT1=
EXTT2=
EXTT3=
EXTT4=
EXTT5=
EXTT6=
EXTT7=
EXTT8=
EXTT9=
PLAYORDER=
